<?xml version="1.0" encoding="utf-8"?>
<!-- Generator: Adobe Illustrator 19.1.0, SVG Export Plug-In . SVG Version: 6.00 Build 0)  -->
<svg version="1.1" id="Layer_1" xmlns="http://www.w3.org/2000/svg" xmlns:xlink="http://www.w3.org/1999/xlink" x="0px" y="0px"
	 viewBox="0 0 1200 1200" enable-background="new 0 0 1200 1200" xml:space="preserve">
<g>
	<path fill="#C85442" d="M1006.187,1115.73H242.932c-84.76,0-128.133-46.82-128.133-134.002V192.281
		c0-47.75,41.495-108.011,115.147-108.011h775.322c87.71,0,133.913,60.261,133.913,133.913v750.63
		C1139.18,1063.789,1105.267,1115.73,1006.187,1115.73z"/>
	<path fill="#C74E2A" d="M1021.782,1099.077H232.197c-54.567,0-99.214-44.646-99.214-99.214V210.278
		c0-63.236,44.646-99.213,99.214-99.213h778.665c60.573,0,110.133,49.56,110.133,110.133v768.98
		C1120.995,1053.499,1076.349,1099.077,1021.782,1099.077z"/>
	<g>
		<defs>
			<path id="SVGID_1_" d="M1021.782,1099.571H232.197c-54.567,0-99.214-44.646-99.214-99.214V210.773
				c0-63.237,44.646-99.213,99.214-99.213h778.665c60.573,0,110.133,49.56,110.133,110.133v768.98
				C1120.995,1053.994,1076.349,1099.571,1021.782,1099.571z"/>
		</defs>
		<clipPath id="SVGID_2_">
			<use xlink:href="#SVGID_1_"  overflow="visible"/>
		</clipPath>
		<path clip-path="url(#SVGID_2_)" fill="#E7BD8E" d="M114.843,819.421l-9.132-9.131c6.351-6.351,232.289-238.688,234.573-241.034
			l3.642-3.746L551.82,696.248l255.066-384.76l190.095,205.048l116.845-306.719l12.07,4.597l-124.248,326.156L808.576,332.312
			L555.617,713.893L345.899,582.008C315.593,613.169,120.887,813.379,114.843,819.421z"/>
		<g opacity="0.26" clip-path="url(#SVGID_2_)">
			<rect x="50.001" y="146.512" fill="#FFFFFF" width="1099.999" height="6.559"/>
			<rect x="50" y="277.433" fill="#FFFFFF" width="1100" height="6.559"/>
			<rect x="50" y="408.35" fill="#FFFFFF" width="1100" height="6.559"/>
			<rect x="50" y="539.268" fill="#FFFFFF" width="1099.999" height="6.559"/>
			<rect x="50" y="670.189" fill="#FFFFFF" width="1099.999" height="6.559"/>
			<rect x="50" y="801.107" fill="#FFFFFF" width="1099.999" height="6.559"/>
			<rect x="50" y="932.024" fill="#FFFFFF" width="1099.999" height="6.559"/>
		</g>
		<g opacity="0.26" clip-path="url(#SVGID_2_)">
			<rect x="203.964" y="110.943" fill="#FFFFFF" width="6.559" height="863.21"/>
			<rect x="334.884" y="110.943" fill="#FFFFFF" width="6.559" height="863.21"/>
			<rect x="465.802" y="110.943" fill="#FFFFFF" width="6.559" height="863.21"/>
			<rect x="596.72" y="110.943" fill="#FFFFFF" width="6.559" height="863.21"/>
			<rect x="727.641" y="110.943" fill="#FFFFFF" width="6.559" height="863.21"/>
			<rect x="858.559" y="110.943" fill="#FFFFFF" width="6.559" height="863.21"/>
			<rect x="989.476" y="110.943" fill="#FFFFFF" width="6.559" height="863.21"/>
		</g>
		<path clip-path="url(#SVGID_2_)" fill="#262E3C" d="M602.775,323.322v55.844c0,3.784-3.068,6.853-6.852,6.853h-55.248
			c-3.784,0-6.852-3.068-6.852-6.853v-56.935c0-3.785-3.068-6.853-6.852-6.853H469.45c-3.784,0-6.852,3.068-6.852,6.853v56.935
			c0,3.784-3.068,6.853-6.852,6.853h-55.247c-3.785,0-6.852-3.068-6.852-6.853v-55.831c0-3.785-3.068-6.853-6.853-6.853h-55.831
			c-3.785,0-6.853,3.068-6.853,6.853v86.245c0,1.725-0.333,8.811-0.376,10.535c-0.257,10.376-1.171,19.427,16.931,35.439
			c18.637,16.486,32.632,29.192,39.478,35.449c2.482,2.268,2.942,5.955,1.102,8.769c-4.925,7.536-11.182,23.813,7.984,42.979
			c6.389,6.389,15.376,17.339,19.17,22.036c1.159,1.434,1.686,3.245,1.472,5.077c-3.326,28.529-30.777,263.173-33.887,263.173
			h-45.019c-0.181,0-0.334,0.005-0.515,0.019c-2.493,0.183-20.842,1.913-22.898,13.226c-1.673,9.201-6.516,31.715-8.763,42.079
			c-0.683,3.151-3.468,5.382-6.693,5.382h-24.279c0,0-15.452,0-15.452,14.349v52.375c0,0.473,0.044,0.918,0.138,1.381
			c0.666,3.273,4.092,15.78,17.522,15.78c14.984,0,215.741,0,227.892,0c0,0,0.203,0,0.584,0c12.151,0,212.908,0,227.892,0
			c13.431,0,16.855-12.507,17.522-15.78c0.094-0.463,0.138-0.909,0.138-1.381v-52.375c0-14.349-15.452-14.349-15.452-14.349h-24.279
			c-3.224,0-6.01-2.231-6.693-5.382c-2.247-10.364-7.089-32.878-8.763-42.079c-2.057-11.313-20.406-13.043-22.898-13.226
			c-0.181-0.014-0.333-0.019-0.515-0.019h-45.019c-3.11,0-30.56-234.645-33.887-263.173c-0.213-1.831,0.315-3.642,1.473-5.077
			c3.793-4.697,12.779-15.647,19.168-22.036c19.166-19.166,12.91-35.443,7.985-42.979c-1.839-2.814-1.379-6.501,1.103-8.769
			c6.846-6.257,20.841-18.963,39.477-35.449c18.102-16.012,17.189-25.063,16.933-35.439c-0.043-1.724-0.376-8.81-0.376-10.535
			l-0.205-86.369c-0.009-3.782-3.082-6.842-6.864-6.836l-55.626,0.096C605.835,316.477,602.775,319.542,602.775,323.322z"/>
		<path clip-path="url(#SVGID_2_)" fill="#3E4959" d="M408.4,564.786c1.07,1.325,1.532,2.981,1.439,4.668h176.742
			c-0.094-1.687,0.369-3.343,1.439-4.668c3.794-4.697,12.78-15.647,19.17-22.036c19.166-19.165,12.909-35.442,7.985-42.978
			c-0.498-0.761-0.796-1.587-0.962-2.431H382.209c-0.166,0.843-0.465,1.669-0.962,2.431c-4.925,7.536-11.182,23.813,7.984,42.978
			C395.62,549.139,404.606,560.089,408.4,564.786z"/>
		<path clip-path="url(#SVGID_2_)" fill="#36404D" d="M728.601,893.742h-24.279c-1.527,0-2.936-0.53-4.089-1.392H296.188
			c-1.153,0.862-2.563,1.392-4.09,1.392h-24.28c0,0-15.452,0-15.452,14.349v52.375c0,0.473,0.044,0.918,0.138,1.381
			c0.666,3.273,4.092,15.78,17.522,15.78h227.893c0,0,0.203,0,0.583,0h227.891c13.431,0,16.856-12.507,17.522-15.781
			c0.094-0.463,0.138-0.908,0.138-1.381v-52.375C744.054,893.742,728.601,893.742,728.601,893.742z"/>
		<path clip-path="url(#SVGID_2_)" fill="#3E4959" d="M676.641,831.267h-19.133c-1.204,0-2.314-0.163-3.223-0.429H335.859
			c-0.909,0.265-2.019,0.429-3.223,0.429h-19.135c0,0-12.178,0-12.178,4.42v16.132c0,0.146,0.034,0.283,0.108,0.426
			c0.525,1.008,3.224,4.86,13.809,4.86h179.6c0,0,0.161,0,0.46,0h179.6c10.585,0,13.284-3.852,13.809-4.86
			c0.074-0.143,0.109-0.28,0.109-0.426v-16.132C688.819,831.267,676.641,831.267,676.641,831.267z"/>
		<path opacity="0.39" clip-path="url(#SVGID_2_)" fill="#000006" d="M728.601,893.742h-24.279c-3.224,0-6.01-2.231-6.693-5.382
			c-2.247-10.364-7.089-32.878-8.762-42.079c-2.057-11.313-20.406-13.043-22.899-13.226c-0.181-0.013-0.333-0.018-0.515-0.018
			h-45.019c-3.11,0-30.561-234.645-33.887-263.174c-0.213-1.831,0.315-3.642,1.472-5.076c3.794-4.697,12.78-15.647,19.17-22.036
			c19.166-19.166,12.909-35.443,7.985-42.978c-1.839-2.814-1.379-6.501,1.102-8.769c6.846-6.257,20.84-18.963,39.477-35.449
			c18.103-16.012,17.189-25.063,16.933-35.439c-0.043-1.724-0.376-8.811-0.376-10.535l-0.205-86.369
			c-0.009-3.783-3.082-6.843-6.864-6.836l-55.626,0.095c-3.78,0.007-6.84,3.073-6.84,6.852v55.844c0,3.784-3.068,6.852-6.852,6.852
			h-55.248c-3.784,0-6.852-3.068-6.852-6.852v-56.935c0-3.785-3.068-6.853-6.853-6.853h-27.604v662.249h227.029
			c13.431,0,16.856-12.507,17.522-15.78c0.094-0.463,0.138-0.909,0.138-1.381v-52.375
			C744.054,893.742,728.601,893.742,728.601,893.742z"/>
		<g clip-path="url(#SVGID_2_)">
			<circle fill="#262E3C" cx="792.467" cy="579.747" r="86.13"/>
			<path fill="#293241" d="M858.85,691.926c0,1.637-32.598-0.978-55.459-3.013v-2.028c0,0-4.34,0.424-10.924,1.035
				c-6.584-0.611-10.924-1.035-10.924-1.035v2.028c-22.861,2.035-55.46,4.65-55.46,3.013c0,0-1.68,108.399-77.307,191.588
				c0,18.486,0,36.974,0,36.974l43.695,15.965l89.071,4.723v1.159l10.924-0.579l10.924,0.579v-1.159l89.071-4.723l43.695-15.965
				c0,0,0-18.487,0-36.974C860.531,800.325,858.85,691.926,858.85,691.926z"/>
			<path fill="#434F61" d="M950.863,977.627H634.071c-15.945,0-28.99-13.046-28.99-28.99l0,0c0-15.945,13.046-28.99,28.99-28.99
				h316.792c15.945,0,28.99,13.046,28.99,28.99l0,0C979.853,964.581,966.807,977.627,950.863,977.627z"/>
			<path fill="#3E4959" d="M874.396,699.489H710.538c-12.247,0-22.268-10.02-22.268-22.268l0,0
				c0-12.247,10.021-22.268,22.268-22.268h163.858c12.247,0,22.268,10.021,22.268,22.268l0,0
				C896.663,689.469,886.643,699.489,874.396,699.489z"/>
		</g>
		<path opacity="0.39" clip-path="url(#SVGID_2_)" fill="#000006" d="M950.863,919.646h-14.705v-36.133
			c-63.708-70.08-74.939-158.04-76.898-184.025h15.136c12.247,0,22.268-10.02,22.268-22.268s-10.021-22.268-22.268-22.268h-40.004
			c26.359-14.727,44.206-42.867,44.206-75.206c0-47.503-38.458-86.014-85.935-86.121v484h158.201c15.945,0,28.99-13.046,28.99-28.99
			C979.853,932.692,966.807,919.646,950.863,919.646z"/>
		<rect x="125.344" y="948.979" clip-path="url(#SVGID_2_)" fill="#262E3C" width="1007.434" height="160.214"/>
	</g>
</g>
</svg>
